<?xml version="1.0" encoding="UTF-8"?>
<svg id="Layer_1" data-name="Layer 1" xmlns="http://www.w3.org/2000/svg" viewBox="0 0 1366.88 768">
  <defs>
    <style>
      .cls-1, .cls-2, .cls-3, .cls-4, .cls-5, .cls-6, .cls-7 {
        stroke-miterlimit: 10;
      }

      .cls-1, .cls-6 {
        stroke: #f2f2f2;
      }

      .cls-1, .cls-6, .cls-7 {
        stroke-width: .75px;
      }

      .cls-2 {
        fill: #b3b3b3;
        stroke: #333;
        stroke-width: 5px;
      }

      .cls-3 {
        stroke-width: 6px;
      }

      .cls-3, .cls-4 {
        fill: none;
      }

      .cls-3, .cls-4, .cls-5 {
        stroke: #000;
      }

      .cls-4, .cls-5 {
        stroke-width: 2px;
      }

      .cls-8, .cls-9, .cls-10 {
        stroke-width: 0px;
      }

      .cls-9 {
        fill: #4d4d4d;
      }

      .cls-10 {
        fill: #2c4837;
      }

      .cls-6, .cls-7 {
        fill: gray;
      }

      .cls-7 {
        stroke: #fff;
      }
    </style>
  </defs>
  <g>
    <rect class="cls-10" x="1.88" y="668.76" width="1364" height="98.24"/>
    <path class="cls-8" d="m1364.88,669.76v96.24H2.88v-96.24h1362m2-2H.88v100.24h1366v-100.24h0Z"/>
  </g>
  <rect class="cls-7" x=".38" y="455.5" width="1366" height="171.54"/>
  <rect class="cls-9" x=".87" width="1366" height="455"/>
  <line class="cls-4" x1="73.21" y1="668.14" x2="72.88" y2="768"/>
  <line class="cls-4" x1="221.43" y1="669.84" x2="221.88" y2="768"/>
  <rect class="cls-4" x="1.88" y="683.72" width="54.59" height="83.28"/>
  <rect class="cls-4" x="92.19" y="683.72" width="110.16" height="83.28"/>
  <g>
    <rect class="cls-10" x="91.7" y="724.64" width="111.13" height="41.36"/>
    <path class="cls-8" d="m201.84,725.64v39.36h-109.13v-39.36h109.13m2-2h-113.13v43.36h113.13v-43.36h0Z"/>
  </g>
  <g>
    <rect class="cls-10" x="131.89" y="735.82" width="32.24" height="7.58"/>
    <path class="cls-8" d="m163.13,736.82v5.58h-30.24v-5.58h30.24m2-2h-34.24v9.58h34.24v-9.58h0Z"/>
  </g>
  <g>
    <rect class="cls-10" x="130.4" y="691.11" width="32.24" height="7.58"/>
    <path class="cls-8" d="m161.64,692.11v5.58h-30.24v-5.58h30.24m2-2h-34.24v9.58h34.24v-9.58h0Z"/>
  </g>
  <rect class="cls-4" x="236.58" y="683.72" width="125.04" height="83.28"/>
  <rect class="cls-4" x="372.05" y="683.72" width="125.04" height="83.28"/>
  <line class="cls-4" x1="512.36" y1="669.73" x2="512.88" y2="767"/>
  <g>
    <rect class="cls-10" x="530.84" y="684.72" width="291.26" height="81.28"/>
    <path class="cls-8" d="m821.1,685.72v79.28h-289.26v-79.28h289.26m2-2h-293.26v83.28h293.26v-83.28h0Z"/>
  </g>
  <line class="cls-4" x1="529.84" y1="744.4" x2="823.1" y2="744.4"/>
  <ellipse class="cls-5" cx="555.15" cy="717.25" rx="8.93" ry="9.58"/>
  <ellipse class="cls-5" cx="589.39" cy="717.25" rx="8.93" ry="9.58"/>
  <ellipse class="cls-5" cx="626.6" cy="717.25" rx="8.93" ry="9.58"/>
  <ellipse class="cls-5" cx="806.72" cy="706.08" rx="2.98" ry="3.19"/>
  <ellipse class="cls-5" cx="806.72" cy="726.83" rx="2.98" ry="3.19"/>
  <g>
    <rect class="cls-10" x="541.26" y="761.36" width="267.44" height="5.64"/>
    <path class="cls-8" d="m807.7,762.36v3.64h-265.44v-3.64h265.44m2-2h-269.44v7.64h269.44v-7.64h0Z"/>
  </g>
  <line class="cls-4" x1="840.77" y1="670.38" x2="840.88" y2="767"/>
  <line class="cls-4" x1="840.96" y1="744.4" x2="1134.22" y2="744.4"/>
  <line class="cls-4" x1="1134.33" y1="669.81" x2="1134.88" y2="767"/>
  <rect class="cls-4" x="854.36" y="757.17" width="123.55" height="9.83"/>
  <rect class="cls-4" x="991.31" y="757.17" width="126.53" height="9.83"/>
  <g>
    <rect class="cls-10" x="855.36" y="684.72" width="121.55" height="44.3"/>
    <path class="cls-8" d="m975.91,685.72v42.3h-119.55v-42.3h119.55m2-2h-123.55v46.3h123.55v-46.3h0Z"/>
  </g>
  <g>
    <rect class="cls-10" x="995.29" y="684.72" width="121.55" height="44.3"/>
    <path class="cls-8" d="m1115.84,685.72v42.3h-119.55v-42.3h119.55m2-2h-123.55v46.3h123.55v-46.3h0Z"/>
  </g>
  <g>
    <rect class="cls-10" x="898.53" y="692.71" width="32.24" height="7.58"/>
    <path class="cls-8" d="m929.77,693.71v5.58h-30.24v-5.58h30.24m2-2h-34.24v9.58h34.24v-9.58h0Z"/>
  </g>
  <g>
    <rect class="cls-10" x="1042.92" y="692.71" width="32.24" height="7.58"/>
    <path class="cls-8" d="m1074.16,693.71v5.58h-30.24v-5.58h30.24m2-2h-34.24v9.58h34.24v-9.58h0Z"/>
  </g>
  <line class="cls-4" x1="1282.16" y1="670.73" x2="1281.88" y2="767"/>
  <rect class="cls-4" x="1152.91" y="684.61" width="110.16" height="82.39"/>
  <g>
    <rect class="cls-10" x="1152.88" y="727" width="110" height="40"/>
    <path class="cls-8" d="m1261.88,728v38h-108v-38h108m2-2h-112v42h112v-42h0Z"/>
  </g>
  <g>
    <rect class="cls-10" x="1192.62" y="736.71" width="32.24" height="7.58"/>
    <path class="cls-8" d="m1223.86,737.71v5.58h-30.24v-5.58h30.24m2-2h-34.24v9.58h34.24v-9.58h0Z"/>
  </g>
  <g>
    <rect class="cls-10" x="1191.13" y="692" width="32.24" height="7.58"/>
    <path class="cls-8" d="m1222.37,693v5.58h-30.24v-5.58h30.24m2-2h-34.24v9.58h34.24v-9.58h0Z"/>
  </g>
  <rect class="cls-4" x="1294.99" y="683.72" width="70.89" height="83.28"/>
  <rect class="cls-6" x=".38" y="626.24" width="1366" height="41.51"/>
  <rect class="cls-1" x="25.95" y="483.52" width="184.59" height="114.96"/>
  <ellipse class="cls-1" cx="66.58" cy="518.66" rx="23.82" ry="21.55"/>
  <ellipse class="cls-1" cx="66.86" cy="570.14" rx="20.1" ry="15.97"/>
  <ellipse class="cls-1" cx="163.18" cy="518.25" rx="29.03" ry="23.15"/>
  <ellipse class="cls-1" cx="158.64" cy="569.74" rx="20.1" ry="15.97"/>
  <ellipse class="cls-2" cx="702.4" cy="553.57" rx="73.69" ry="39.92"/>
  <path class="cls-3" d="m628.21,518c0-13.82-1.61-33.53-1.61-75.05,0-17.77,6.37-43.45,30.52-43.45s30.52,25.67,30.52,51.35"/>
  <ellipse class="cls-3" cx="628.92" cy="517.87" rx="5.26" ry="3.16" transform="translate(-24.54 31.33) rotate(-2.8)"/>
</svg>