<?xml version="1.0" encoding="UTF-8"?>
<svg id="Layer_2" data-name="Layer 2" xmlns="http://www.w3.org/2000/svg" viewBox="0 0 366.17 303.46">
  <defs>
    <style>
      .cls-1, .cls-2, .cls-3, .cls-4, .cls-5, .cls-6 {
        stroke: #000;
        stroke-miterlimit: 10;
      }

      .cls-1, .cls-2, .cls-3, .cls-4, .cls-6 {
        stroke-linecap: round;
      }

      .cls-1, .cls-2, .cls-4, .cls-5 {
        stroke-width: 3px;
      }

      .cls-1, .cls-6 {
        fill: none;
      }

      .cls-3, .cls-4, .cls-7 {
        fill: #fff;
      }

      .cls-3, .cls-6 {
        stroke-width: 5px;
      }

      .cls-5 {
        fill: red;
      }

      .cls-7 {
        stroke-width: 0px;
      }
    </style>
  </defs>
  <g id="Layer_1-2" data-name="Layer 1">
    <g>
      <path class="cls-3" d="m91.62,177c-29-1-29.47,4.13-66-5-16-4-21-10.54-23-22-2.11-12.1,23-56,36-61,0,0,1.59-3.2,3-8,5-17,22-27,33-35,17.28-12.57,46.18-11.39,57-15,9-3,40.03-24.39,67-27s41.51,1.16,52.72,7.91c2.25,1.35,4.84,2.01,7.46,1.94,10.57-.29,39.12-1.53,53.82,5.15,11,5,20,21,20,21,25,23,27.81,33.31,30,46,3.69,21.34-7.61,39.23-10,43-9.12,14.42-21.87,21.68-40,32,0,0-12.78,7.27-25,12-54.07,20.92-110.87,6.94-196,4Z"/>
      <path class="cls-3" d="m96.12,276l-4-110c55-30,159-18,194-5v122c-14,25-166,25-190-7Z"/>
      <path class="cls-6" d="m287.62,172.5c12-3,65.26-28.35,74-60,7.59-27.47-6.8-53.52-29-73"/>
      <path class="cls-6" d="m329.62,102.5c14.09-47.2,3.41-64.09-3-72-16.7-20.63-40.15-15.21-69.4-15.95-1.04-.03-2.08-.23-3.05-.6-6.27-2.38-12.55-11.44-41.55-11.44s-56.17,14.58-79.01,27.44c-.65.37-1.34.62-2.07.77-4.79.96-25.44,2.09-39.92,7.79-19.65,7.74-43.36,20.46-50,42-3.19,10.35-1.23,20.23,1,27"/>
      <path class="cls-6" d="m38.62,89.5c-5.94,3.94-14,11-24,27-2.19,3.5-22.35,36.41-4,48,19,12,34,13,81,12"/>
      <path class="cls-6" d="m96.62,163.5c-15,0-41,0-55-10"/>
      <path class="cls-6" d="m104.62,160.5c-3-1-18.58-4.65-31-14-11.33-8.53-17.26-18.54-20-24"/>
      <path class="cls-6" d="m215.62,147.5c7.65-10.02,16.63-25.62,24.25-42.29,9.1-19.91,13.63-38.09,16-52"/>
      <path class="cls-6" d="m286.62,161.5c12.58-9.4,17.93-16.79,26-32"/>
      <path class="cls-4" d="m170.62,176.5c-5,1-10,10-10,17,0,10.05,2,20,6,27,2.44,4.28,10.17,14.46,18,13,9.64-1.79,12-15,12-21,0-13.76-4-21-7-26s-10.75-11.65-19-10Z"/>
      <path class="cls-4" d="m221.62,178.5c-4.95-1.24-13.1,3.63-16,10-5,11-4.65,12.63-4,22,.34,4.91,2.32,17.67,10.09,19.4,9.57,2.14,17.82-8.77,19.29-14.59,3.62-14.31,3.62-16.31,1.62-23.81-1.63-6.11-7-12-11-13Z"/>
      <path class="cls-2" d="m206.12,165c-.59-1.71-.39-5.88,1-7,1-.81,3.55-1.44,7-1,6.43.82,11.11,4.32,12,5,10.2,7.8,14,18,15,20,0,0-4.42-6.58-14-11-5.15-2.38-11-4-11-4-5.89-1.64-9.23.22-10-2Z"/>
      <path class="cls-2" d="m186.31,164.26c.6-1.71.39-5.88-1.02-7-1.02-.81-3.62-1.44-7.14-1-6.55.82-11.33,4.32-12.23,5-10.4,7.8-14.27,18-15.29,20,0,0,4.51-6.58,14.27-11,5.26-2.38,11.21-4,11.21-4,6.01-1.64,9.42.22,10.2-2Z"/>
      <path class="cls-2" d="m182.12,203c-3,.31-5,4-5,10s2.84,10.98,6,11c3.14.02,6-4,6-11s-3.88-10.33-7-10Z"/>
      <path class="cls-2" d="m211.68,203.61c-3,.31-5.56,3.76-5.56,10.39,0,6,3.4,10.6,6.56,10.61,3.14.02,6.44-4.61,6-11-.52-7.62-3.88-10.33-7-10Z"/>
      <path class="cls-7" d="m183.62,209.5c-1.14,0-2,1.65-2,3,0,2,1,3,2,3,1.39,0,2-2,2-3,0-2-1-3-2-3Z"/>
      <path class="cls-7" d="m211.72,209.71c-1.14,0-2,1.65-2,3,0,2,1,3,2,3,1.39,0,2-2,2-3,0-2-1-3-2-3Z"/>
      <path class="cls-2" d="m150.12,231l21.45,15.09c3.8,2.67,5.55,3.91,12.55,5.91,12.58,3.59,31.62,1.27,42-4,6.91-3.51,10-6,18-17,.49-.67-5,10-18,17-2.47,1.33-3.49,7.95-5,14-1,4-3,12,2,12,2,0,6-4,6-4,0,0-6.23,6.94-16,11-3.16,1.32-15.9,6.12-30,1-13.14-4.77-19.37-15.23-24-23-5.75-9.64-9-28-9-28Z"/>
      <path class="cls-1" d="m237.12,228c7.42,1.18,10.76,4.92,12,8"/>
      <path class="cls-1" d="m156.12,225c-8,1-11,8-12,12"/>
      <path class="cls-5" d="m172.62,272.5c-.5.5,11.45,10.81,24,11,11.16.17,22.5-5.5,25-8,.5-.5-14.26-6.56-23-7-9.7-.49-24.2,2.2-26,4Z"/>
      <path class="cls-6" d="m154.46,147.5c-1.91-2.52-12.71-14.33-17.67-29.06-4.53-13.44-3.77-25.04-2.95-31.1"/>
    </g>
  </g>
</svg>