<?xml version="1.0" encoding="UTF-8"?>
<svg id="Layer_2" data-name="Layer 2" xmlns="http://www.w3.org/2000/svg" viewBox="0 0 95.87 68.7">
  <defs>
    <style>
      .cls-1 {
        fill: #fff;
      }

      .cls-1, .cls-2 {
        stroke: #000;
        stroke-miterlimit: 10;
      }

      .cls-2 {
        fill: none;
      }
    </style>
  </defs>
  <g id="Layer_1-2" data-name="Layer 1">
    <g>
      <polygon class="cls-1" points="1.02 58.44 .51 39.89 12.81 32.6 26.04 32.6 26.04 22.34 35.68 16.19 36.09 7.17 47.89 .5 66.76 .5 67.13 15.87 81.63 15.88 81.63 21.83 95.37 21.22 95.37 39.89 85.22 49.52 82.34 49.42 82.24 57.83 71.47 68.18 50.35 66.44 50.35 62.85 46.14 66.54 25.12 64.9 25.12 57.72 22.04 60.29 1.02 58.44"/>
      <line class="cls-2" x1="71.47" y1="68.18" x2="71.11" y2="49.28"/>
      <line class="cls-2" x1="82.26" y1="41.52" x2="71.11" y2="49.28"/>
      <line class="cls-2" x1="50.79" y1="48.16" x2="71.11" y2="49.28"/>
      <line class="cls-2" x1="50.35" y1="66.44" x2="50.79" y2="48.16"/>
      <line class="cls-2" x1="82.24" y1="57.83" x2="82.26" y2="41.3"/>
      <line class="cls-2" x1="73.94" y1="41.57" x2="82.26" y2="41.52"/>
      <line class="cls-2" x1="50.79" y1="48.16" x2="57.1" y2="42.86"/>
      <line class="cls-2" x1="50.57" y1="42.43" x2="71.8" y2="43.72"/>
      <line class="cls-2" x1="85.22" y1="49.52" x2="85.03" y2="30.78"/>
      <line class="cls-2" x1="95.37" y1="21.22" x2="85.03" y2="30.78"/>
      <line class="cls-2" x1="85.03" y1="30.78" x2="81.68" y2="30.81"/>
      <line class="cls-2" x1="81.6" y1="21.72" x2="81.6" y2="34.44"/>
      <line class="cls-2" x1="81.69" y1="34.25" x2="71.61" y2="43.81"/>
      <line class="cls-2" x1="71.8" y1="43.72" x2="71.8" y2="24.1"/>
      <line class="cls-2" x1="81.63" y1="15.88" x2="71.73" y2="24.29"/>
      <line class="cls-2" x1="71.8" y1="24.1" x2="59.84" y2="24.1"/>
      <line class="cls-2" x1="36" y1="26.12" x2="56.65" y2="28.06"/>
      <line class="cls-2" x1="56.46" y1="28.16" x2="67.13" y2="15.87"/>
      <line class="cls-2" x1="56.65" y1="28.06" x2="56.68" y2="8.62"/>
      <line class="cls-2" x1="66.76" y1=".5" x2="56.68" y2="8.62"/>
      <line class="cls-2" x1="36.09" y1="7.17" x2="56.68" y2="8.62"/>
      <line class="cls-2" x1="36.09" y1="7.17" x2="36" y2="26.12"/>
      <line class="cls-2" x1="50.57" y1="27.49" x2="50.57" y2="42.43"/>
      <line class="cls-2" x1="52.78" y1="42.43" x2="46.14" y2="46.6"/>
      <line class="cls-2" x1="46.14" y1="66.54" x2="46.33" y2="46.48"/>
      <line class="cls-2" x1="25.12" y1="64.9" x2="25.18" y2="45.4"/>
      <line class="cls-2" x1="46.14" y1="46.6" x2="25.18" y2="45.4"/>
      <line class="cls-2" x1="25.18" y1="45.4" x2="32.47" y2="40.59"/>
      <line class="cls-2" x1="22.04" y1="60.29" x2="21.65" y2="41.29"/>
      <line class="cls-2" x1=".51" y1="39.89" x2="21.65" y2="41.29"/>
      <line class="cls-2" x1="25.91" y1="38.01" x2="21.65" y2="41.29"/>
      <line class="cls-2" x1="26.13" y1="40.59" x2="25.94" y2="22.02"/>
      <line class="cls-2" x1="46.39" y1="40.59" x2="26.13" y2="40.59"/>
      <line class="cls-2" x1="25.94" y1="22.02" x2="36.26" y2="22.02"/>
      <line class="cls-2" x1="46.39" y1="40.59" x2="46.23" y2="27.08"/>
      <line class="cls-2" x1="50.57" y1="35.87" x2="46.39" y2="40.59"/>
    </g>
  </g>
</svg>