<?xml version="1.0" encoding="UTF-8"?>
<svg id="Layer_2" data-name="Layer 2" xmlns="http://www.w3.org/2000/svg" viewBox="0 0 83.61 72.75">
  <defs>
    <style>
      .cls-1 {
        stroke: #fed956;
      }

      .cls-1, .cls-2, .cls-3, .cls-4 {
        stroke-miterlimit: 10;
      }

      .cls-1, .cls-4 {
        fill: none;
        stroke-linecap: round;
        stroke-width: 2px;
      }

      .cls-2 {
        fill: #ffca86;
      }

      .cls-2, .cls-3 {
        stroke: #000;
        stroke-width: .75px;
      }

      .cls-3 {
        fill: #fff1cb;
      }

      .cls-5 {
        fill: #ffc201;
        stroke-width: 0px;
      }

      .cls-4 {
        stroke: #fff;
      }
    </style>
  </defs>
  <g id="Layer_1-2" data-name="Layer 1">
    <path class="cls-3" d="M20.75,18.12c-5.15,4.89-3.73,13.07-2.19,21.93,1.25,7.23,2.9,16.7,10.97,24.13,2.49,2.29,11.16,10.27,20.84,7.68,7.99-2.15,11.72-10.18,12.06-10.97,2.51-5.65-.29-6.96,2.19-16.45,2.06-7.88,4.39-13.16,4.39-13.16,1.78-4.06,3.31-6.52,2.19-8.77-1.01-2.05-3.64-2.78-5.48-3.29-.72-.2-3.75-.97-7.68,0-4.08,1.01-4.12,2.67-7.68,3.29-.71.12-4.28.68-7.68-1.1-3.21-1.68-3.16-3.8-5.48-5.48-4.19-3.03-12.22-1.82-16.45,2.19Z"/>
    <path class="cls-2" d="M42.69,10.44C27.33-2.72,14.21-1.65,6.5,6.06c-12.06,12.06-4.39,28.52,6.58,37.29l3.29-2.19-2.19-4.39,3.29-1.1,1.1-4.39,4.39,2.19,3.29-2.19-1.1-4.39,2.19-2.19,6.58,1.1,1.1-4.39-2.19-1.1,2.19-4.39h6.58l1.1-5.48Z"/>
    <path class="cls-2" d="M53.66,12.64c3.29-2.19,23.57-7.58,28.52,3.29,5.48,12.06-12.06,26.32-12.06,26.32l-3.29-5.48,3.29-3.29-1.1-3.29-5.48,1.1v-5.48l-5.48-2.19,1.1-5.48-5.48-2.19v-3.29Z"/>
    <path class="cls-5" d="M44.88,33.48c-6.08-.22-12.36,4.8-12.06,10.97.26,5.52,5.69,9.68,10.97,9.87,6.08.22,12.36-4.8,12.06-10.97-.26-5.52-5.69-9.68-10.97-9.87Z"/>
    <path class="cls-4" d="M21.85,37.86q-.55,1.65,0,3.29"/>
    <path class="cls-4" d="M22.4,43.9c1.1,6.58,2.19,13.16,8.77,17.55"/>
    <path class="cls-4" d="M43.24,66.93c5.48,2.19,13.16,0,15.35-6.58"/>
    <path class="cls-1" d="M36.66,40.6c-2.19,5.48,0,10.97,5.48,10.97"/>
  </g>
</svg>